<?xml version="1.0" standalone="no"?>
<!DOCTYPE svg PUBLIC "-//W3C//DTD SVG 20010904//EN"
 "http://www.w3.org/TR/2001/REC-SVG-20010904/DTD/svg10.dtd">
<svg version="1.0" xmlns="http://www.w3.org/2000/svg"
 width="150.000000pt" height="150.000000pt" viewBox="0 0 150.000000 150.000000"
 preserveAspectRatio="xMidYMid meet">

<circle cx="75" cy="75" r="63" fill="#ffffff"/>

<g transform="translate(0.000000,150.000000) scale(0.100000,-0.100000)"
fill="#000000" stroke="none">
<path d="M645 1469 c-230 -35 -439 -186 -538 -389 -62 -127 -80 -201 -80 -330
0 -129 18 -203 80 -330 38 -79 61 -110 132 -181 71 -71 102 -94 181 -132 127
-62 201 -80 330 -80 129 0 203 18 330 80 79 38 110 61 181 132 71 71 94 102
132 181 62 127 80 201 80 330 0 129 -18 203 -80 330 -38 79 -61 110 -132 181
-71 71 -102 94 -181 132 -52 26 -121 53 -153 61 -77 20 -208 27 -282 15z m252
-104 c180 -42 339 -172 422 -341 82 -168 82 -380 0 -548 -83 -169 -242 -299
-422 -341 -80 -19 -214 -19 -294 0 -225 53 -415 243 -468 468 -19 80 -19 214
0 294 52 223 242 414 463 468 76 18 222 18 299 0z"/>
<path d="M490 1178 c-60 -30 -72 -59 -78 -189 -6 -125 -22 -166 -72 -176 -29
-5 -30 -7 -30 -63 0 -57 1 -59 31 -65 50 -11 66 -49 71 -178 4 -79 10 -122 22
-146 22 -41 84 -70 149 -71 l47 0 0 60 c0 58 -1 60 -26 60 -54 0 -62 12 -69
117 -9 130 -19 166 -56 197 l-31 26 31 25 c38 32 48 66 56 188 7 105 14 117
69 117 25 0 26 2 26 60 l0 60 -48 0 c-30 0 -65 -9 -92 -22z"/>
<path d="M860 1141 l0 -61 34 0 c53 0 66 -20 66 -100 0 -102 16 -165 52 -201
l31 -30 -22 -20 c-40 -37 -53 -78 -58 -183 -6 -115 -17 -136 -70 -136 l-33 0
0 -61 0 -62 64 5 c68 6 114 27 136 62 9 13 17 68 21 144 7 139 20 169 77 187
31 9 32 11 32 65 0 54 -1 56 -32 65 -56 17 -69 49 -77 181 -4 72 -13 127 -21
140 -22 35 -68 56 -136 62 l-64 5 0 -62z"/>
</g>
</svg>